<?xml version="1.0" encoding="UTF-8"?>
<svg width="150px" height="24px" viewBox="0 0 150 24" version="1.1" xmlns="http://www.w3.org/2000/svg" xmlns:xlink="http://www.w3.org/1999/xlink">
    <title>1BFF05C1-1117-4E5E-9883-7F32398313CF</title>
    <g id="Atoms" stroke="none" stroke-width="1" fill="none" fill-rule="evenodd">
        <g transform="translate(-276, -256)" fill="#FE5000" fill-rule="nonzero" id="Logos">
            <g transform="translate(40, 237)">
                <g id="4x4-tyres-logo---black" transform="translate(236, 19)">
                    <polygon id="Path" points="149.962441 3.21919705 146.803716 0.0406091371 146.71733 0.00369173973 138.657135 0.00369173973 138.566993 0.0406091371 135.393244 3.20443009 135.355685 3.2893401 135.355685 10.9090909 135.423292 11.0161514 144.580214 15.8855561 144.580214 18.5768343 143.738889 19.4148593 140.816786 19.4296262 140.043068 18.6432856 140.028044 16.6718966 139.900343 16.5500692 135.096527 16.5648362 134.976338 16.6903553 134.976338 20.7291186 135.010141 20.8177204 138.168866 23.9630826 138.255252 24 146.300423 24 146.390565 23.9630826 149.598117 20.751269 149.63192 20.6626673 149.63192 13.1795108 149.56807 13.0687587 140.426171 8.20304569 140.426171 5.39363175 141.248717 4.55560683 144.189599 4.55560683 144.948294 5.32718043 144.948294 7.26534379 145.072239 7.3871712 149.876055 7.3871712 150 7.26534379 150 3.3077988"></polygon>
                    <polygon id="Path" points="118.198663 0.00369173973 118.074718 0.125519151 118.074718 22.1209045 118.089741 23.8781726 118.217442 24 132.580064 24 132.704009 23.8781726 132.722788 19.588371 132.595087 19.4628519 123.242858 19.4480849 123.242858 13.8809414 130.255152 13.8957084 130.382853 13.7738809 130.382853 9.53576373 130.255152 9.41024458 123.242858 9.41024458 123.242858 4.55560683 132.595087 4.55560683 132.722788 4.43377942 132.722788 0.125519151 132.595087 0.00369173973"></polygon>
                    <path d="M115.76483,12.4854638 L115.802389,12.396862 L115.821168,3.2708814 L115.783609,3.18227965 L112.519719,0.0369173973 L112.429577,0 L100.782482,0 L100.654781,0.125519151 L100.673561,23.8744808 L100.801262,23.9963083 L105.800386,23.9963083 L105.928087,23.8707891 L105.913063,15.5643747 L107.674587,15.5643747 L111.453039,23.9187817 L111.569472,23.9926165 L117.064376,23.9926165 L117.18081,23.815413 L112.910334,15.2321181 L115.76483,12.4854638 Z M110.600446,5.49330872 L110.600446,10.0599908 L109.578837,10.9976927 L105.909307,10.9976927 L105.909307,4.55560683 L109.627664,4.55560683 L110.600446,5.49330872 Z" id="Shape"></path>
                    <polygon id="Path" points="93.2593835 0.00369173973 93.1429501 0.0812182741 90.2058242 7.54960775 87.1034379 0.0812182741 86.9870045 0.00369173973 81.9916368 0.00369173973 81.8789594 0.173511767 87.5841951 13.7775727 87.5841951 23.8781726 87.7081403 24 92.572051 24 92.6959962 23.8781726 92.7110199 13.7775727 98.4049879 0.173511767 98.2885545 0.00369173973"></polygon>
                    <polygon id="Path" points="63.2233267 0.00369173973 63.0993815 0.125519151 63.0993815 4.41532072 63.2233267 4.54083987 68.7032076 4.55560683 68.7032076 23.8781726 68.8309087 24 73.8037409 24 73.931442 23.8781726 73.931442 4.55560683 79.4977089 4.54083987 79.62541 4.41532072 79.62541 0.125519151 79.4977089 0.00369173973"></polygon>
                    <polygon id="Path" points="50.8588527 13.7849562 50.8250495 4.68112598 50.7011042 4.55929857 45.8033903 4.55929857 45.6794451 4.68112598 45.6944688 6.58606368 45.6794451 13.7849562 43.5761324 13.7849562 42.7723665 13.0096908 42.7723665 0.125519151 42.6446653 0.00369173973 37.6831009 0.00369173973 37.5591557 0.125519151 37.5591557 15.545916 37.5929589 15.6345178 40.8192904 18.77988 40.9056764 18.8167974 45.6794451 18.8167974 45.6794451 23.8781726 45.8033903 24 50.7499311 24 50.8776323 23.8744808 50.8588527 18.8167974 53.957483 18.8167974 54.0851842 18.6912783 54.0851842 13.9067836 53.957483 13.7849562"></polygon>
                    <polygon id="Path" points="35.1891729 0.00369173973 30.2764354 0.00369173973 30.160002 0.0775265344 27.0839072 6.64143978 24.1054661 0.0775265344 23.9927886 0.00369173973 19.0274683 0.00369173973 18.9110349 0.177203507 24.4434985 12.0018459 18.7795778 23.8227965 18.8922553 24 23.9402058 24 24.0566392 23.9261652 27.1139545 17.362252 30.1261988 23.9261652 30.2426321 24 35.1553697 24 35.2718031 23.8264882 29.7393395 12.0018459 35.3056063 0.177203507"></polygon>
                    <polygon id="Path" points="13.299697 13.7849562 13.2658938 4.68112598 13.1419486 4.55929857 8.24423467 4.55929857 8.12028946 4.68112598 8.13531312 6.58606368 8.12028946 13.7849562 6.01697674 13.7849562 5.21321081 13.0096908 5.21321081 0.125519151 5.08550968 0.00369173973 0.123945214 0.00369173973 0 0.125519151 0 15.545916 0.0338032401 15.6345178 3.26013471 18.77988 3.35027669 18.8167974 8.12028946 18.8167974 8.12028946 23.8781726 8.24423467 24 13.1907755 24 13.3184766 23.8744808 13.299697 18.8167974 16.3983274 18.8167974 16.5260285 18.6912783 16.5260285 13.9067836 16.3983274 13.7849562"></polygon>
                </g>
            </g>
        </g>
    </g>
</svg>