<?xml version="1.0" encoding="utf-8"?>
<!-- Generator: Adobe Illustrator 24.0.0, SVG Export Plug-In . SVG Version: 6.00 Build 0)  -->
<svg version="1.1" id="Layer_1" xmlns="http://www.w3.org/2000/svg" xmlns:xlink="http://www.w3.org/1999/xlink" x="0px" y="0px"
	 viewBox="0 0 400 100" style="enable-background:new 0 0 400 100;" xml:space="preserve">
<g>
	<polygon points="67,53 66.9,34.5 66.7,34.3 57,34.3 56.7,34.5 56.7,38.4 56.7,53 52.5,53 50.9,51.4 50.9,25.3 50.7,25.1 40.8,25.1 
		40.6,25.3 40.6,56.6 40.6,56.7 47,63.1 47.2,63.2 56.7,63.2 56.7,73.4 57,73.7 66.8,73.7 67,73.4 67,63.2 73.2,63.2 73.4,62.9 
		73.4,53.2 73.2,53 	"/>
	<polygon points="110.9,25 101.2,25 101,25.1 94.9,38.5 88.9,25.1 88.7,25 78.8,25 78.6,25.4 89.6,49.3 78.3,73.3 78.6,73.7 
		88.6,73.7 88.8,73.5 94.9,60.2 100.9,73.5 101.1,73.7 110.9,73.7 111.1,73.3 100.1,49.3 111.2,25.4 	"/>
	<polygon points="145.4,53 145.3,34.5 145.1,34.3 135.3,34.3 135.1,34.5 135.1,38.4 135.1,53 130.9,53 129.3,51.4 129.3,25.3 
		129,25.1 119.2,25.1 118.9,25.3 118.9,56.6 119,56.7 125.4,63.1 125.6,63.2 135.1,63.2 135.1,73.4 135.3,73.7 145.2,73.7 
		145.4,73.4 145.4,63.2 151.5,63.2 151.8,62.9 151.8,53.2 151.5,53 	"/>
	<polygon points="169.2,25.1 169,25.3 169,34 169.2,34.3 180,34.3 180,73.4 180.2,73.7 190,73.7 190.2,73.4 190.2,34.3 201.1,34.3 
		201.4,34 201.4,25.3 201.1,25.1 	"/>
	<polygon points="228.1,25 227.8,25.2 222,40.3 215.8,25.2 215.5,25 205.5,25 205.3,25.3 216.7,52.9 216.7,73.4 217,73.7 
		226.7,73.7 226.9,73.4 227,52.9 238.4,25.3 238.1,25 	"/>
	<path d="M262.2,36.2v9.3l-2,1.9H253V34.3h7.3L262.2,36.2z M272.2,50.4l0.1-0.2l0-18.5l-0.1-0.2l-6.4-6.4l-0.2-0.1H243l-0.2,0.3
		l0,48.1l0.2,0.2h9.8l0.2-0.3l0-16.8h3.4l7.4,16.9l0.2,0.2h10.7l0.2-0.4l-8.3-17.4L272.2,50.4z"/>
	<polygon points="280.5,25.1 280.2,25.3 280.2,69.9 280.3,73.4 280.5,73.7 308.9,73.7 309.2,73.4 309.2,64.7 309,64.5 290.5,64.5 
		290.5,53.2 304.3,53.2 304.6,53 304.6,44.4 304.3,44.1 290.5,44.1 290.5,34.3 309,34.3 309.2,34 309.2,25.3 309,25.1 	"/>
	<polygon points="345.6,31.6 339.2,25.1 339.1,25.1 322.8,25.1 322.6,25.1 316.2,31.5 316.1,31.7 316.1,47.2 316.3,47.4 334.7,57.2 
		334.7,62.7 333,64.4 327.2,64.4 325.6,62.8 325.6,58.8 325.3,58.6 315.6,58.6 315.4,58.9 315.4,67.1 315.4,67.2 321.8,73.6 
		322,73.7 338.2,73.7 338.4,73.6 344.9,67.1 344.9,66.9 344.9,51.8 344.8,51.5 326.4,41.7 326.4,36 328,34.3 334,34.3 335.5,35.9 
		335.5,39.8 335.7,40 345.4,40 345.7,39.8 345.7,31.8 	"/>
	<path d="M354,64.6h5.4v1.3l-2.5,0l2.5,1v1l-2.5,1l2.5,0V70l-5.4,0v-1.7l2.8-1l-2.8-1.1V64.6z M354,70.8h1.3v1.4h4.1v1.4h-4.1V75
		H354V70.8z"/>
</g>
</svg>
