<?xml version="1.0" encoding="UTF-8"?>
<svg width="27px" height="24px" viewBox="0 0 27 24" version="1.1" xmlns="http://www.w3.org/2000/svg" xmlns:xlink="http://www.w3.org/1999/xlink">
    <title>4E9730AE-A43A-49F0-ACA5-C4746C7A2F34</title>
    <g id="Atoms" stroke="none" stroke-width="1" fill="none" fill-rule="evenodd">
        <g transform="translate(-973.000000, -1014.000000)" fill="#555555" fill-rule="nonzero" id="Atoms-/-Icons-main-/-comments-alt">
            <g transform="translate(973.000000, 1014.000000)" id="comments-alt">
                <path d="M24,7.5 L19.5,7.5 L19.5,3 C19.5,1.3453125 18.1546875,0 16.5,0 L3,0 C1.3453125,0 0,1.3453125 0,3 L0,10.5 C0,12.1546875 1.3453125,13.5 3,13.5 L4.5,13.5 L4.5,15.9375 C4.5,16.2703125 4.771875,16.5 5.0625,16.5 C5.175,16.5 5.2921875,16.4671875 5.3953125,16.3875 L9,14.3484375 L9,18 C9,19.6546875 10.3453125,21 12,21 L16.5,21 L21.6046875,23.8875 C21.7078125,23.9625 21.825,24 21.9375,24 C22.228125,24 22.5,23.7703125 22.5,23.4375 L22.5,21 L24,21 C25.6546875,21 27,19.6546875 27,18 L27,10.5 C27,8.8453125 25.6546875,7.5 24,7.5 Z M4.5,11.25 L3,11.25 C2.5875,11.25 2.25,10.9125 2.25,10.5 L2.25,3 C2.25,2.5875 2.5875,2.25 3,2.25 L16.5,2.25 C16.9125,2.25 17.25,2.5875 17.25,3 L17.25,10.5 C17.25,10.9125 16.9125,11.25 16.5,11.25 L9.909375,11.25 L9.39375,11.540625 L6.75,13.0359375 L6.75,11.25 L4.5,11.25 Z M24.75,18 C24.75,18.4125 24.4125,18.75 24,18.75 L20.25,18.75 L20.25,20.5359375 L17.60625,19.040625 L17.090625,18.75 L12,18.75 C11.5875,18.75 11.25,18.4125 11.25,18 L11.25,13.5 L16.5,13.5 C18.1546875,13.5 19.5,12.1546875 19.5,10.5 L19.5,9.75 L24,9.75 C24.4125,9.75 24.75,10.0875 24.75,10.5 L24.75,18 L24.75,18 Z" id="Shape"></path>
            </g>
        </g>
    </g>
</svg>