<?xml version="1.0" encoding="UTF-8"?>
<svg width="240px" height="286px" viewBox="0 0 240 286" version="1.1" xmlns="http://www.w3.org/2000/svg" xmlns:xlink="http://www.w3.org/1999/xlink">
    <title>BFA949CB-F028-4B1A-BC06-A75AB537317B</title>
    <g id="ebay-v2" stroke="none" stroke-width="1" fill="none" fill-rule="evenodd">
        <g id="EBAY-4X4-PRODUCT-PAGE-truncated" transform="translate(-306.000000, -926.000000)" fill-rule="nonzero">
            <g id="REVIEWS" transform="translate(134.000000, 841.000000)">
                <g id="RATED-IMAGE---240x286---DT" transform="translate(172.000000, 85.000000)">
                    <g id="Mask" fill="#000032">
                        <path d="M133.535491,3.82621898 L227.699318,61.6946056 C235.343252,66.3921859 240,74.7165252 240,83.6831371 L240,202.316863 C240,211.283475 235.343252,219.607814 227.699318,224.305394 L133.535491,282.173781 C125.234092,287.275406 114.765907,287.275406 106.464509,282.173781 L12.3006821,224.305394 C4.65674809,219.607814 0,211.283475 0,202.316863 L0,83.6831371 C0,74.7165252 4.65674809,66.3921859 12.3006821,61.6946056 L106.464509,3.82621898 C114.765907,-1.27540633 125.234092,-1.27540633 133.535491,3.82621898 Z" id="path-1"></path>
                    </g>
                    <path d="M69.1882147,99.2790967 L76.2929988,99.2790967 C77.7800541,99.2790967 78.8953288,98.9502059 79.6388565,98.2924146 C80.3823841,97.6346233 80.7541424,96.5657282 80.7541424,95.0856977 C80.7541424,93.660483 80.3823841,92.6258477 79.6388565,91.9817603 C78.8953288,91.3376729 77.7800541,91.015634 76.2929988,91.015634 L69.1882147,91.015634 L69.1882147,99.2790967 Z M62.7030338,86 L78.6061844,86 C79.9280113,86 81.1190142,86.2124083 82.1792299,86.6372322 C83.2394456,87.0620561 84.1481873,87.6444661 84.9054842,88.3844818 C85.6627812,89.1244974 86.2410719,89.9809834 86.6403734,90.9539664 C87.0396749,91.9269494 87.2393232,92.9752887 87.2393232,94.0990156 C87.2393232,95.8257182 86.8744498,97.31943 86.1446908,98.5801969 C85.4149318,99.8409638 84.2239288,100.800228 82.5716453,101.45802 L82.5716453,101.540243 C83.3702491,101.759507 84.0311528,102.095249 84.5543757,102.547481 C85.0775987,102.999713 85.5044325,103.53416 85.8348891,104.15084 C86.1653458,104.767519 86.4063002,105.445856 86.5577596,106.185871 C86.709219,106.925887 86.8124854,107.665891 86.8675613,108.405906 C86.8950992,108.871842 86.9226371,109.419993 86.950175,110.050376 C86.977713,110.68076 87.0259043,111.324838 87.0947491,111.982629 C87.1635939,112.64042 87.2737448,113.263942 87.4252042,113.853214 C87.5766636,114.442485 87.803849,114.942673 88.1067678,115.353793 L81.6215869,115.353793 C81.2635923,114.421921 81.0432914,113.311915 80.9606768,112.023741 C80.8780622,110.735566 80.7541432,109.502225 80.5889148,108.323683 C80.3686103,106.788836 79.9004703,105.665126 79.1844807,104.952519 C78.4684912,104.239912 77.2981411,103.883613 75.6733956,103.883613 L69.1882147,103.883613 L69.1882147,115.353793 L62.7030338,115.353793 L62.7030338,86 Z M91.6591599,100.635785 C91.7417744,99.2653855 92.0859944,98.1279724 92.691832,97.223509 C93.2976695,96.3190455 94.0687233,95.5927451 95.0050175,95.044586 C95.9413117,94.4964268 96.9946268,94.1058684 98.1649942,93.872901 C99.3353616,93.6399336 100.512596,93.5234511 101.696733,93.5234511 C102.770717,93.5234511 103.858454,93.5988218 104.959977,93.7495657 C106.061499,93.9003096 107.066623,94.1949406 107.975379,94.6334684 C108.884136,95.0719962 109.627651,95.6818142 110.205951,96.4629415 C110.784251,97.2440689 111.073396,98.2787042 111.073396,99.566879 L111.073396,110.625941 C111.073396,111.58522 111.128471,112.503374 111.238623,113.380428 C111.348776,114.257483 111.541539,114.915265 111.816919,115.353793 L105.868728,115.353793 C105.758576,115.024897 105.669078,114.689154 105.600233,114.346555 C105.531389,114.003955 105.483197,113.654508 105.455659,113.298205 C104.519365,114.257484 103.417859,114.92897 102.151109,115.312681 C100.884358,115.696392 99.5900882,115.888246 98.2682614,115.888246 C97.2493534,115.888246 96.2993039,115.764912 95.4180863,115.51824 C94.5368688,115.271568 93.7658142,114.887862 93.1049008,114.367111 C92.4439874,113.846359 91.9276562,113.188578 91.5558926,112.393746 C91.1841291,111.598915 90.9982497,110.653354 90.9982497,109.557035 C90.9982497,108.351085 91.2116662,107.35756 91.6385064,106.576433 C92.0653467,105.795306 92.6160994,105.171784 93.2907818,104.705848 C93.9654641,104.239913 94.7365187,103.890466 95.6039673,103.657499 C96.471416,103.424531 97.3457369,103.23953 98.2269545,103.10249 C99.1081721,102.96545 99.9756086,102.85582 100.829288,102.773596 C101.682968,102.691372 102.440253,102.568038 103.101167,102.40359 C103.76208,102.239142 104.285296,101.999326 104.670828,101.684134 C105.056361,101.368943 105.235356,100.909866 105.207818,100.306891 C105.207818,99.6765071 105.104552,99.1763189 104.898016,98.8063115 C104.691481,98.4363041 104.416104,98.1485243 104.071879,97.9429647 C103.727653,97.7374051 103.328357,97.6003667 102.873979,97.5318471 C102.419601,97.4633275 101.930808,97.4290677 101.407585,97.4290677 C100.250986,97.4290677 99.3422436,97.6757359 98.6813302,98.1690793 C98.0204168,98.6624228 97.63489,99.4846498 97.5247375,100.635785 L91.6591599,100.635785 Z M105.207818,104.952519 C104.959975,105.171782 104.650177,105.34308 104.278413,105.466416 C103.906649,105.589752 103.507354,105.69253 103.080513,105.774754 C102.653673,105.856978 102.206187,105.925497 101.73804,105.980313 C101.269893,106.035128 100.801753,106.103647 100.333606,106.185871 C99.8929964,106.268096 99.459279,106.377726 99.0324387,106.514765 C98.6055985,106.651805 98.2338406,106.836807 97.9171529,107.069774 C97.6004651,107.302742 97.3457418,107.597373 97.1529755,107.953677 C96.9602092,108.30998 96.8638273,108.762206 96.8638273,109.310365 C96.8638273,109.831116 96.9602092,110.269637 97.1529755,110.625941 C97.3457418,110.982244 97.6073496,111.263172 97.9378063,111.468732 C98.268263,111.674291 98.6537899,111.818181 99.0943991,111.900405 C99.5350083,111.98263 99.9893791,112.023741 100.457526,112.023741 C101.614125,112.023741 102.509098,111.831887 103.142474,111.448176 C103.775849,111.064465 104.243989,110.605387 104.546908,110.070932 C104.849827,109.536477 105.035706,108.995177 105.104551,108.447018 C105.173396,107.898859 105.207818,107.460337 105.207818,107.131442 L105.207818,104.952519 Z M123.052392,94.0990156 L127.348308,94.0990156 L127.348308,98.0046323 L123.052392,98.0046323 L123.052392,108.529241 C123.052392,109.515928 123.217618,110.17371 123.548075,110.502606 C123.878531,110.831501 124.539435,110.995947 125.530805,110.995947 C125.861262,110.995947 126.177945,110.982243 126.480863,110.954835 C126.783782,110.927427 127.072927,110.886315 127.348308,110.8315 L127.348308,115.353793 C126.852623,115.436017 126.30187,115.490832 125.696033,115.51824 C125.090195,115.545648 124.498136,115.559351 123.919837,115.559351 C123.01108,115.559351 122.150529,115.497685 121.338156,115.374349 C120.525784,115.251013 119.809805,115.011196 119.190198,114.654893 C118.570592,114.298589 118.081799,113.791549 117.723804,113.133758 C117.365809,112.475967 117.186814,111.612629 117.186814,110.543717 L117.186814,98.0046323 L113.634422,98.0046323 L113.634422,94.0990156 L117.186814,94.0990156 L117.186814,87.7266937 L123.052392,87.7266937 L123.052392,94.0990156 Z M144.531972,102.444702 C144.256591,100.964671 143.767798,99.8409614 143.065578,99.0735379 C142.363357,98.3061145 141.296273,97.9224088 139.864294,97.9224088 C138.928,97.9224088 138.150062,98.0800022 137.530455,98.395194 C136.910849,98.7103857 136.415171,99.1009433 136.043407,99.566879 C135.671644,100.032815 135.410036,100.526151 135.258576,101.046902 C135.107117,101.567653 135.01762,102.033582 134.990082,102.444702 L144.531972,102.444702 Z M134.990082,106.14476 C135.072696,108.03591 135.554605,109.406288 136.435823,110.255935 C137.31704,111.105582 138.583773,111.5304 140.236056,111.5304 C141.420192,111.5304 142.439086,111.235769 143.292765,110.646497 C144.146445,110.057225 144.669661,109.433703 144.862427,108.775912 L150.025788,108.775912 C149.199646,111.324854 147.932914,113.147456 146.225554,114.243775 C144.518194,115.340094 142.452871,115.888246 140.029522,115.888246 C138.3497,115.888246 136.835129,115.621022 135.485764,115.086566 C134.1364,114.552111 132.993587,113.791551 132.057293,112.804864 C131.120999,111.818177 130.398135,110.639652 129.888681,109.269253 C129.379227,107.898855 129.124504,106.391438 129.124504,104.74696 C129.124504,103.157297 129.386112,101.67729 129.909335,100.306891 C130.432558,98.9364915 131.176074,97.7511147 132.139907,96.7507238 C133.103739,95.7503329 134.253436,94.9623657 135.589032,94.3867979 C136.924627,93.8112301 138.404776,93.5234511 140.029522,93.5234511 C141.847033,93.5234511 143.430449,93.8728978 144.779813,94.5718008 C146.129178,95.2707039 147.237569,96.2094134 148.105018,97.387956 C148.972466,98.5664986 149.598948,99.9094697 149.984481,101.416908 C150.370013,102.924346 150.507702,104.500281 150.39755,106.14476 L134.990082,106.14476 Z M169.026954,104.664737 C169.026954,103.787682 168.944342,102.944899 168.779113,102.136364 C168.613885,101.327828 168.331624,100.615232 167.932322,99.9985524 C167.533021,99.3818729 167.016689,98.8816847 166.383314,98.4979734 C165.749938,98.114262 164.951347,97.9224088 163.987515,97.9224088 C163.023682,97.9224088 162.211322,98.114262 161.550408,98.4979734 C160.889495,98.8816847 160.359395,99.3887248 159.960093,100.019108 C159.560792,100.649492 159.271646,101.36894 159.092649,102.177475 C158.913651,102.986011 158.824154,103.828793 158.824154,104.705848 C158.824154,105.528087 158.920536,106.350314 159.113302,107.172554 C159.306068,107.994793 159.615867,108.727945 160.042707,109.372032 C160.469547,110.01612 161.006531,110.536864 161.653676,110.934279 C162.30082,111.331694 163.078758,111.5304 163.987515,111.5304 C164.951347,111.5304 165.756823,111.338546 166.403967,110.954835 C167.051112,110.571124 167.567443,110.057232 167.952975,109.413144 C168.338508,108.769057 168.613885,108.035904 168.779113,107.213665 C168.944342,106.391426 169.026954,105.541791 169.026954,104.664737 Z M169.109568,112.640417 L169.026954,112.640417 C168.338503,113.791552 167.436645,114.620631 166.321354,115.127678 C165.206062,115.634725 163.946215,115.888246 162.541774,115.888246 C160.944566,115.888246 159.540146,115.579911 158.328471,114.963231 C157.116797,114.346551 156.118557,113.510621 155.333722,112.455414 C154.548887,111.400207 153.956828,110.187422 153.557526,108.817024 C153.158225,107.446625 152.958576,106.021432 152.958576,104.541401 C152.958576,103.116187 153.158225,101.738956 153.557526,100.40967 C153.956828,99.0803834 154.548887,97.9087097 155.333722,96.8946149 C156.118557,95.8805202 157.103028,95.0651451 158.287165,94.4484655 C159.471301,93.831786 160.848183,93.5234511 162.417853,93.5234511 C163.684604,93.5234511 164.889376,93.7906751 166.032205,94.3251303 C167.175035,94.8595855 168.076893,95.6475535 168.737806,96.6890562 L168.82042,96.6890562 L168.82042,86 L174.685998,86 L174.685998,115.353793 L169.109568,115.353793 L169.109568,112.640417 Z M31,127.111754 L53.0578763,127.111754 L53.0578763,132.538506 L37.4851809,132.538506 L37.4851809,138.828605 L51.7773629,138.828605 L51.7773629,143.844239 L37.4851809,143.844239 L37.4851809,151.038796 L53.3883314,151.038796 L53.3883314,156.465547 L31,156.465547 L31,127.111754 Z M62.5997666,145.28315 L55.5775963,135.21077 L62.2693116,135.21077 L66.028238,140.760857 L69.7458576,135.21077 L76.2310385,135.21077 L69.2088681,145.159815 L77.0984831,156.465547 L70.4067678,156.465547 L65.9456243,149.764331 L61.4844807,156.465547 L54.9166861,156.465547 L62.5997666,145.28315 Z M93.8690782,142.693109 C93.4835456,140.2538 92.0378185,139.034163 89.5318553,139.034163 C88.5955611,139.034163 87.8107384,139.246572 87.1773629,139.671395 C86.5439874,140.096219 86.0276562,140.64437 85.6283547,141.315866 C85.2290532,141.987361 84.9467919,142.727365 84.7815636,143.5359 C84.6163352,144.344436 84.5337223,145.146107 84.5337223,145.940938 C84.5337223,146.708361 84.6163352,147.489477 84.7815636,148.284308 C84.9467919,149.079139 85.2152843,149.798588 85.5870478,150.442675 C85.9588114,151.086763 86.4613737,151.614358 87.0947491,152.025478 C87.7281246,152.436598 88.4991783,152.642154 89.4079347,152.642154 C90.812376,152.642154 91.8932282,152.251596 92.6505251,151.470469 C93.407822,150.689342 93.8828463,149.641002 94.0756126,148.32542 L99.7346558,148.32542 C99.3491232,151.148441 98.2476168,153.299935 96.430105,154.779965 C94.6125932,156.259996 92.2856622,157 89.4492415,157 C87.8520339,157 86.3856541,156.732776 85.0500583,156.198321 C83.7144626,155.663866 82.5785346,154.917009 81.6422404,153.95773 C80.7059461,152.998451 79.9761986,151.854185 79.4529755,150.524899 C78.9297524,149.195612 78.6681447,147.736159 78.6681447,146.146497 C78.6681447,144.502019 78.9090991,142.974047 79.3910152,141.562536 C79.8729313,140.151025 80.5820255,138.931389 81.5183197,137.90359 C82.454614,136.875791 83.5974264,136.07412 84.9467911,135.498552 C86.2961558,134.922985 87.8382641,134.635206 89.5731622,134.635206 C90.8399131,134.635206 92.0584541,134.799651 93.2288215,135.128547 C94.3991889,135.457442 95.4456194,135.95763 96.3681447,136.629126 C97.29067,137.300621 98.0410703,138.136552 98.6193699,139.136943 C99.1976695,140.137334 99.5281205,141.32271 99.6107351,142.693109 L93.8690782,142.693109 Z M117.414002,143.556456 C117.138621,142.076426 116.649828,140.952716 115.947608,140.185292 C115.245388,139.417869 114.178304,139.034163 112.746324,139.034163 C111.81003,139.034163 111.032092,139.191757 110.412485,139.506948 C109.792879,139.82214 109.297201,140.212698 108.925438,140.678633 C108.553674,141.144569 108.292066,141.637905 108.140607,142.158657 C107.989147,142.679408 107.89965,143.145336 107.872112,143.556456 L117.414002,143.556456 Z M107.872112,147.256514 C107.954727,149.147665 108.436635,150.518043 109.317853,151.36769 C110.199071,152.217337 111.465803,152.642154 113.118086,152.642154 C114.302223,152.642154 115.321116,152.347523 116.174796,151.758251 C117.028475,151.16898 117.551691,150.545458 117.744457,149.887666 L122.907818,149.887666 C122.081676,152.436608 120.814945,154.259211 119.107585,155.35553 C117.400224,156.451849 115.334901,157 112.911552,157 C111.231731,157 109.717159,156.732776 108.367795,156.198321 C107.01843,155.663866 105.875617,154.903305 104.939323,153.916618 C104.003029,152.929931 103.280166,151.751407 102.770712,150.381008 C102.261258,149.010609 102.006534,147.503193 102.006534,145.858715 C102.006534,144.269052 102.268142,142.789044 102.791365,141.418645 C103.314588,140.048247 104.058105,138.862869 105.021937,137.862478 C105.985769,136.862087 107.135466,136.07412 108.471062,135.498552 C109.806658,134.922985 111.286806,134.635206 112.911552,134.635206 C114.729064,134.635206 116.312479,134.984652 117.661844,135.683555 C119.011208,136.382458 120.119599,137.321168 120.987048,138.49971 C121.854496,139.678253 122.480979,141.021224 122.866511,142.528662 C123.252044,144.036101 123.389732,145.612036 123.27958,147.256514 L107.872112,147.256514 Z M126.914586,127.111754 L132.780163,127.111754 L132.780163,156.465547 L126.914586,156.465547 L126.914586,127.111754 Z M137.571762,127.111754 L143.43734,127.111754 L143.43734,156.465547 L137.571762,156.465547 L137.571762,127.111754 Z M162.438506,143.556456 C162.163126,142.076426 161.674332,140.952716 160.972112,140.185292 C160.269892,139.417869 159.202808,139.034163 157.770828,139.034163 C156.834534,139.034163 156.056596,139.191757 155.436989,139.506948 C154.817383,139.82214 154.321705,140.212698 153.949942,140.678633 C153.578178,141.144569 153.31657,141.637905 153.165111,142.158657 C153.013651,142.679408 152.924154,143.145336 152.896616,143.556456 L162.438506,143.556456 Z M152.896616,147.256514 C152.979231,149.147665 153.461139,150.518043 154.342357,151.36769 C155.223575,152.217337 156.490307,152.642154 158.14259,152.642154 C159.326727,152.642154 160.34562,152.347523 161.1993,151.758251 C162.05298,151.16898 162.576195,150.545458 162.768961,149.887666 L167.932322,149.887666 C167.10618,152.436608 165.839449,154.259211 164.132089,155.35553 C162.424729,156.451849 160.359405,157 157.936056,157 C156.256235,157 154.741663,156.732776 153.392299,156.198321 C152.042934,155.663866 150.900122,154.903305 149.963827,153.916618 C149.027533,152.929931 148.30467,151.751407 147.795216,150.381008 C147.285762,149.010609 147.031039,147.503193 147.031039,145.858715 C147.031039,144.269052 147.292646,142.789044 147.815869,141.418645 C148.339092,140.048247 149.082609,138.862869 150.046441,137.862478 C151.010273,136.862087 152.15997,136.07412 153.495566,135.498552 C154.831162,134.922985 156.31131,134.635206 157.936056,134.635206 C159.753568,134.635206 161.336983,134.984652 162.686348,135.683555 C164.035712,136.382458 165.144103,137.321168 166.011552,138.49971 C166.879001,139.678253 167.505483,141.021224 167.891015,142.528662 C168.276548,144.036101 168.414237,145.612036 168.304084,147.256514 L152.896616,147.256514 Z M171.773862,135.21077 L177.350292,135.21077 L177.350292,138.170816 L177.474212,138.170816 C178.21774,136.937457 179.181558,136.03986 180.365694,135.477997 C181.549831,134.916133 182.761487,134.635206 184.0007,134.635206 C185.57037,134.635206 186.857755,134.847614 187.862894,135.272438 C188.868033,135.697262 189.65974,136.286524 190.23804,137.040243 C190.816339,137.793963 191.22252,138.712116 191.456593,139.794731 C191.690666,140.877346 191.807701,142.076427 191.807701,143.392009 L191.807701,156.465547 L185.942124,156.465547 L185.942124,144.460915 C185.942124,142.706804 185.666747,141.398093 185.115986,140.534742 C184.565225,139.671391 183.587639,139.239722 182.183197,139.239722 C180.58599,139.239722 179.429408,139.712502 178.713419,140.658078 C177.99743,141.603653 177.63944,143.159032 177.63944,145.324262 L177.63944,156.465547 L171.773862,156.465547 L171.773862,135.21077 Z M203.704084,135.21077 L208,135.21077 L208,139.116387 L203.704084,139.116387 L203.704084,149.640996 C203.704084,150.627683 203.86931,151.285465 204.199767,151.61436 C204.530223,151.943256 205.191127,152.107701 206.182497,152.107701 C206.512954,152.107701 206.829637,152.093997 207.132555,152.066589 C207.435474,152.039182 207.724619,151.99807 208,151.943254 L208,156.465547 C207.504315,156.547772 206.953562,156.602586 206.347725,156.629994 C205.741887,156.657402 205.149828,156.671106 204.571529,156.671106 C203.662772,156.671106 202.802221,156.609439 201.989848,156.486103 C201.177476,156.362767 200.461497,156.122951 199.84189,155.766647 C199.222284,155.410344 198.733491,154.903304 198.375496,154.245512 C198.017501,153.587721 197.838506,152.724383 197.838506,151.655472 L197.838506,139.116387 L194.286114,139.116387 L194.286114,135.21077 L197.838506,135.21077 L197.838506,128.838448 L203.704084,128.838448 L203.704084,135.21077 Z" id="Rated-Excellent" fill="#FFFFFF"></path>
                    <g id="Trustpilot_brandmark_gr-wht_RGB" transform="translate(50.000000, 186.000000)">
                        <g id="Type" transform="translate(37.298499, 12.759166)" fill="#FFFFFF">
                            <path d="M0.0125330981,0 L14.3879965,0 L14.3879965,2.7692308 L8.73556934,2.7692308 L8.73556934,18.3364488 L5.62736102,18.3364488 L5.62736102,2.7692308 L0,2.7692308 L0,0 L0.0125330981,0 Z M13.7738747,5.05966936 L16.4308915,5.05966936 L16.4308915,7.62185487 L16.4810239,7.62185487 C16.5687556,7.2595256 16.7316859,6.91013667 16.9698148,6.57368807 C17.2079436,6.23723947 17.4962049,5.9137312 17.8345985,5.64198425 C18.1729922,5.35729697 18.5489851,5.13731135 18.9625773,4.95614671 C19.3761696,4.78792242 19.8022949,4.69734009 20.2284202,4.69734009 C20.5542807,4.69734009 20.7924096,4.71028042 20.9177406,4.72322076 C21.0430715,4.73616109 21.1684025,4.76204175 21.3062666,4.77498208 L21.3062666,7.5959742 C21.105737,7.55715321 20.9052075,7.53127255 20.6921448,7.50539189 C20.4790822,7.47951123 20.2785526,7.46657089 20.078023,7.46657089 C19.6017653,7.46657089 19.1505738,7.57009354 18.7244485,7.76419851 C18.2983232,7.95830347 17.9348633,8.25593112 17.6215359,8.63120071 C17.3082084,9.01941058 17.0575464,9.48526251 16.86955,10.054637 C16.6815535,10.6240117 16.5938218,11.2710282 16.5938218,12.008627 L16.5938218,18.3235084 L13.7613416,18.3235084 L13.7613416,5.05966936 L13.7738747,5.05966936 Z M34.3281555,18.3364488 L31.5458078,18.3364488 L31.5458078,16.4859815 L31.4956754,16.4859815 C31.1447486,17.1588787 30.6308916,17.6894323 29.9415712,18.0905825 C29.2522508,18.4917327 28.5503973,18.698778 27.8360107,18.698778 C26.1440425,18.698778 24.9157989,18.2717472 24.163813,17.4047449 C23.4118271,16.5377428 23.0358341,15.2307694 23.0358341,13.4838248 L23.0358341,5.05966936 L25.8683143,5.05966936 L25.8683143,13.1991375 C25.8683143,14.3637673 26.081377,15.1919484 26.5200354,15.6707406 C26.9461608,16.1495329 27.5602826,16.3953992 28.3373347,16.3953992 C28.9389234,16.3953992 29.4277142,16.3048169 29.8287733,16.1107119 C30.2298325,15.9166069 30.555693,15.6707406 30.7938219,15.3472324 C31.0444839,15.0366644 31.2199472,14.6484545 31.3327451,14.2084832 C31.445543,13.768512 31.4956754,13.2897197 31.4956754,12.7721066 L31.4956754,5.07260969 L34.3281555,5.07260969 L34.3281555,18.3364488 Z M39.1533982,14.0790799 C39.2411299,14.9331418 39.5544574,15.528397 40.0933806,15.8777859 C40.6448369,16.2142345 41.296558,16.3953992 42.061077,16.3953992 C42.3242721,16.3953992 42.6250664,16.3695185 42.9634601,16.3306975 C43.3018537,16.2918765 43.6277143,16.2012942 43.9159755,16.0848312 C44.2167699,15.9683683 44.4548987,15.7872036 44.6554283,15.5542777 C44.8434247,15.3213518 44.9311564,15.0237241 44.9186233,14.6484545 C44.9060902,14.2731849 44.7682261,13.962617 44.5175642,13.729691 C44.2669022,13.4838248 43.9535748,13.3026601 43.5650488,13.1473761 C43.1765227,13.0050325 42.7378643,12.8756292 42.2365404,12.7721066 C41.7352165,12.6685839 41.2338925,12.5521209 40.7200355,12.4356579 C40.1936454,12.319195 39.6797884,12.163911 39.1909975,11.9956867 C38.7022067,11.8274624 38.2635483,11.5945364 37.8750222,11.2969088 C37.4864962,11.0122215 37.1731687,10.6369519 36.947573,10.1840404 C36.7094441,9.73112879 36.5966462,9.17469453 36.5966462,8.50179739 C36.5966462,7.77713884 36.7721096,7.18188362 37.1105032,6.69015105 C37.4488969,6.19841847 37.8875553,5.81020855 38.4014124,5.51258094 C38.9278025,5.21495333 39.504325,5.00790804 40.143513,4.87850473 C40.782701,4.76204175 41.3968228,4.69734009 41.9733453,4.69734009 C42.6375995,4.69734009 43.2767875,4.77498208 43.8783762,4.91732572 C44.4799649,5.05966936 45.0314212,5.29259531 45.520212,5.62904391 C46.0090028,5.95255218 46.410062,6.37958311 46.7359225,6.89719634 C47.0617831,7.41480958 47.2623126,8.04888582 47.3500443,8.78648466 L44.3922332,8.78648466 C44.2543691,8.08770681 43.9535748,7.60891454 43.464784,7.37598858 C42.9759932,7.13012229 42.4120038,7.01365932 41.7853488,7.01365932 C41.5848193,7.01365932 41.3466904,7.02659965 41.0709623,7.06542064 C40.7952341,7.10424163 40.5445721,7.16894329 40.2939102,7.2595256 C40.0557813,7.35010792 39.8552517,7.49245156 39.6797884,7.67361619 C39.5168581,7.85478082 39.4291264,8.08770681 39.4291264,8.38533435 C39.4291264,8.74766367 39.5544574,9.03235094 39.7925862,9.25233659 C40.0307151,9.47232216 40.3440426,9.65348682 40.7325686,9.80877076 C41.1210946,9.95111444 41.5597531,10.0805178 42.061077,10.1840404 C42.5624009,10.287563 43.076258,10.404026 43.6026481,10.520489 C44.1165051,10.6369519 44.617829,10.792236 45.1191529,10.9604602 C45.6204768,11.1286845 46.0591352,11.3616105 46.4476612,11.6592381 C46.8361873,11.9568657 47.1495147,12.319195 47.3876436,12.7591662 C47.6257725,13.1991375 47.7511035,13.7555717 47.7511035,14.4025883 C47.7511035,15.1919484 47.5756401,15.8519053 47.2247133,16.4083395 C46.8737866,16.9518334 46.4225951,17.4047449 45.8711387,17.7411936 C45.3196824,18.0776422 44.6930276,18.3364488 44.0162403,18.4917327 C43.339453,18.6470168 42.6626657,18.7246588 41.9984115,18.7246588 C41.1837601,18.7246588 40.4317742,18.6340764 39.7424539,18.4399715 C39.0531335,18.2458665 38.4515447,17.9611792 37.9502208,17.5859096 C37.4488969,17.1976997 37.0478378,16.7189075 36.7595765,16.1495329 C36.4713152,15.5801583 36.3209181,14.8943208 36.2958519,14.1049606 L39.1533982,14.1049606 L39.1533982,14.0790799 Z M48.5030893,5.05966936 L50.6462491,5.05966936 L50.6462491,1.07404746 L53.4787293,1.07404746 L53.4787293,5.05966936 L56.0354813,5.05966936 L56.0354813,7.24658527 L53.4787293,7.24658527 L53.4787293,14.3378866 C53.4787293,14.6484545 53.4912624,14.9072612 53.5163286,15.1401871 C53.5413948,15.3601727 53.6040603,15.5542777 53.691792,15.7095616 C53.7795237,15.8648457 53.9173877,15.9813086 54.1053842,16.0589506 C54.2933807,16.1365926 54.5315095,16.1754136 54.8573701,16.1754136 C55.0578997,16.1754136 55.2584292,16.1754136 55.4589588,16.1624732 C55.6594884,16.1495329 55.8600179,16.1236522 56.0605475,16.0718909 L56.0605475,18.3364488 C55.7472201,18.3752698 55.4338926,18.4011504 55.1456314,18.4399715 C54.844837,18.4787925 54.5440426,18.4917327 54.2307152,18.4917327 C53.4787293,18.4917327 52.8771406,18.4140908 52.4259491,18.2717472 C51.9747575,18.1294035 51.6112977,17.9094179 51.3606357,17.6247306 C51.0974407,17.3400433 50.9345104,16.9906544 50.8342456,16.5636235 C50.7465139,16.1365926 50.6838484,15.64486 50.6713153,15.1013661 L50.6713153,7.27246593 L48.5281555,7.27246593 L48.5281555,5.05966936 L48.5030893,5.05966936 Z M58.0407769,5.05966936 L60.7228599,5.05966936 L60.7228599,6.85837535 L60.7729923,6.85837535 C61.1740514,6.08195549 61.7255078,5.5384616 62.4398944,5.202013 C63.154281,4.8655644 63.9187999,4.69734009 64.7585175,4.69734009 C65.7736985,4.69734009 66.6510153,4.87850473 67.4030012,5.25377433 C68.1549871,5.61610358 68.781642,6.12077649 69.2829659,6.76779303 C69.7842898,7.41480958 70.1477496,8.16534879 70.3984116,9.01941058 C70.6490735,9.87347246 70.7744045,10.792236 70.7744045,11.7627607 C70.7744045,12.6556436 70.6616066,13.5226457 70.4360109,14.3508269 C70.2104151,15.1919484 69.8720215,15.9295473 69.42083,16.5765638 C68.9696385,17.2235804 68.393116,17.7282533 67.6912625,18.1164632 C66.989409,18.5046731 66.1747576,18.698778 65.2222421,18.698778 C64.8086499,18.698778 64.3950577,18.6599571 63.9814654,18.5823151 C63.5678732,18.5046731 63.1668141,18.3752698 62.7908211,18.2070455 C62.4148282,18.0388212 62.0513683,17.8188355 61.7380409,17.5470886 C61.4121803,17.2753417 61.1489853,16.9647737 60.9233895,16.6153848 L60.8732571,16.6153848 L60.8732571,23.2408342 L58.0407769,23.2408342 L58.0407769,5.05966936 Z M67.9419244,11.7109994 C67.9419244,11.1157442 67.8667258,10.5334293 67.7163287,9.96405471 C67.5659315,9.39468018 67.3403357,8.90294762 67.0395414,8.46297641 C66.738747,8.02300511 66.3627541,7.67361619 65.9240956,7.41480958 C65.4729041,7.15600296 64.9590471,7.01365932 64.3825246,7.01365932 C63.1918802,7.01365932 62.2894972,7.44069023 61.6879085,8.2947521 C61.0863198,9.1488139 60.7855254,10.287563 60.7855254,11.7109994 C60.7855254,12.3838966 60.860724,13.0050325 61.0236543,13.5744071 C61.1865845,14.1437816 61.4121803,14.6355142 61.7380409,15.0496048 C62.0513683,15.4636953 62.4273613,15.7872036 62.8660197,16.0201296 C63.3046781,16.2659959 63.8185352,16.3824588 64.3950577,16.3824588 C65.0467788,16.3824588 65.585702,16.2401152 66.0368935,15.9683683 C66.4880851,15.6966213 66.8515449,15.334292 67.1398062,14.9072612 C67.4280674,14.4672899 67.6411301,13.9755573 67.7664611,13.4191231 C67.8792589,12.8626889 67.9419244,12.2933143 67.9419244,11.7109994 Z M72.9426305,0 L75.7751107,0 L75.7751107,2.7692308 L72.9426305,2.7692308 L72.9426305,0 Z M72.9426305,5.05966936 L75.7751107,5.05966936 L75.7751107,18.3364488 L72.9426305,18.3364488 L72.9426305,5.05966936 Z M78.3067965,0 L81.1392767,0 L81.1392767,18.3364488 L78.3067965,18.3364488 L78.3067965,0 Z M89.8247134,18.698778 C88.7969996,18.698778 87.882083,18.5176135 87.0799653,18.1682245 C86.2778467,17.8188355 85.6010592,17.327103 85.0370697,16.7189075 C84.485614,16.0977716 84.0594884,15.3601727 83.7712268,14.5061109 C83.482966,13.6520491 83.3325692,12.7074049 83.3325692,11.6851187 C83.3325692,10.6757729 83.482966,9.74406915 83.7712268,8.89000727 C84.0594884,8.03594547 84.485614,7.2983466 85.0370697,6.67721071 C85.5885263,6.05607484 86.2778467,5.5772826 87.0799653,5.22789366 C87.882083,4.87850473 88.7969996,4.69734009 89.8247134,4.69734009 C90.8524273,4.69734009 91.7673438,4.87850473 92.5694624,5.22789366 C93.3715801,5.5772826 94.0483676,6.06901516 94.6123571,6.67721071 C95.1638137,7.2983466 95.5899384,8.03594547 95.8782,8.89000727 C96.1664608,9.74406915 96.3168585,10.6757729 96.3168585,11.6851187 C96.3168585,12.7074049 96.1664608,13.6520491 95.8782,14.5061109 C95.5899384,15.3601727 95.1638137,16.0977716 94.6123571,16.7189075 C94.0609006,17.3400433 93.3715801,17.8188355 92.5694624,18.1682245 C91.7673438,18.5176135 90.8524273,18.698778 89.8247134,18.698778 Z M89.8247134,16.3824588 C90.4513684,16.3824588 91.0028249,16.2401152 91.4665493,15.9683683 C91.9302737,15.6966213 92.3062666,15.334292 92.6070612,14.8943208 C92.9078557,14.4543495 93.1209181,13.9496767 93.2713158,13.3932424 C93.4091797,12.8368082 93.4843782,12.2674336 93.4843782,11.6851187 C93.4843782,11.1157442 93.4091797,10.55931 93.2713158,9.98993543 C93.133451,9.42056089 92.9078557,8.92882825 92.6070612,8.48885704 C92.3062666,8.04888582 91.9302737,7.69949685 91.4665493,7.42774991 C91.0028249,7.15600296 90.4513684,7.01365932 89.8247134,7.01365932 C89.1980584,7.01365932 88.6466027,7.15600296 88.1828775,7.42774991 C87.7191532,7.69949685 87.3431602,8.0618261 87.0423656,8.48885704 C86.7415711,8.92882825 86.5285087,9.42056089 86.3781119,9.98993543 C86.2402479,10.55931 86.1650487,11.1157442 86.1650487,11.6851187 C86.1650487,12.2674336 86.2402479,12.8368082 86.3781119,13.3932424 C86.5159758,13.9496767 86.7415711,14.4543495 87.0423656,14.8943208 C87.3431602,15.334292 87.7191532,15.6966213 88.1828775,15.9683683 C88.6466027,16.2530555 89.1980584,16.3824588 89.8247134,16.3824588 Z M97.1440429,5.05966936 L99.2872028,5.05966936 L99.2872028,1.07404746 L102.119683,1.07404746 L102.119683,5.05966936 L104.676435,5.05966936 L104.676435,7.24658527 L102.119683,7.24658527 L102.119683,14.3378866 C102.119683,14.6484545 102.132216,14.9072612 102.157282,15.1401871 C102.182349,15.3601727 102.245014,15.5542777 102.332745,15.7095616 C102.420477,15.8648457 102.558341,15.9813086 102.746337,16.0589506 C102.934334,16.1365926 103.172463,16.1754136 103.498323,16.1754136 C103.698853,16.1754136 103.899383,16.1754136 104.099912,16.1624732 C104.300442,16.1495329 104.500971,16.1236522 104.701501,16.0718909 L104.701501,18.3364488 C104.388173,18.3752698 104.074846,18.4011504 103.786585,18.4399715 C103.48579,18.4787925 103.184996,18.4917327 102.871668,18.4917327 C102.119683,18.4917327 101.518094,18.4140908 101.066903,18.2717472 C100.615711,18.1294035 100.252251,17.9094179 100.001589,17.6247306 C99.7383942,17.3400433 99.5754636,16.9906544 99.4751993,16.5636235 C99.3874671,16.1365926 99.3248016,15.64486 99.3122686,15.1013661 L99.3122686,7.27246593 L97.1691088,7.27246593 L97.1691088,5.05966936 L97.1440429,5.05966936 Z" id="Shape"></path>
                        </g>
                        <g id="Star">
                            <polygon id="Shape" fill="#00B67A" points="34.0022949 12.7591662 21.0180054 12.7591662 17.0074141 0 12.9842896 12.7591662 0 12.7462258 10.5152692 20.6398277 6.49214478 33.3860536 17.0074141 25.5053921 27.5101502 33.3860536 23.4995588 20.6398277 34.0022949 12.7591662"></polygon>
                            <polygon id="Shape" fill="#005128" points="24.4019419 23.5255215 23.4995588 20.6398277 17.0074141 25.5053921"></polygon>
                        </g>
                    </g>
                </g>
            </g>
        </g>
    </g>
</svg>