<?xml version="1.0" encoding="utf-8"?>
<!-- Generator: Adobe Illustrator 27.8.0, SVG Export Plug-In . SVG Version: 6.00 Build 0)  -->
<svg version="1.1" id="Layer_1" xmlns="http://www.w3.org/2000/svg" xmlns:xlink="http://www.w3.org/1999/xlink" x="0px" y="0px"
	 viewBox="0 0 640 512" style="enable-background:new 0 0 640 512;" xml:space="preserve">
<style type="text/css">
	.st0{fill:#555555;}
</style>
<path class="st0" d="M520,48H393.3C381,19.7,352.8,0,320,0s-61,19.7-73.3,48H120c-13.3,0-24,10.7-24,24s10.7,24,24,24h121.6
	c5.8,28.6,26.9,51.7,54.4,60.3V464H120c-13.3,0-24,10.7-24,24s10.7,24,24,24h200h200c13.3,0,24-10.7,24-24s-10.7-24-24-24H344V156.3
	c27.5-8.6,48.6-31.7,54.4-60.3L520,96c13.3,0,24-10.7,24-24S533.3,48,520,48z M512,195.8L584.4,320H439.5L512,195.8z M386,337.1
	C396.8,382,449.1,416,512,416s115.2-34,126-78.9c2.6-11-1-22.3-6.7-32.1l-95.2-163.2c-5-8.6-14.2-13.8-24.1-13.8
	s-19.1,5.3-24.1,13.8l-95.2,163.3c-5.7,9.8-9.3,21.1-6.7,32.1V337.1z M54.4,320l72.4-124.2L199.3,320H54.4z M126.8,416
	c62.9,0,115.2-34,126-78.9c2.6-11-1-22.3-6.7-32.1l-95.2-163.2c-5-8.6-14.2-13.8-24.1-13.8s-19.1,5.3-24.1,13.8L7.6,305.1
	c-5.7,9.8-9.3,21.1-6.7,32.1C11.7,382,64,416,126.8,416z M320,48c17.7,0,32,14.3,32,32s-14.3,32-32,32s-32-14.3-32-32
	S302.3,48,320,48z"/>
</svg>
