<?xml version="1.0" encoding="utf-8"?>
<!-- Generator: Adobe Illustrator 27.8.0, SVG Export Plug-In . SVG Version: 6.00 Build 0)  -->
<svg version="1.1" id="Layer_1" xmlns="http://www.w3.org/2000/svg" xmlns:xlink="http://www.w3.org/1999/xlink" x="0px" y="0px"
	 viewBox="0 0 512 512" style="enable-background:new 0 0 512 512;" xml:space="preserve">
<style type="text/css">
	.st0{fill:#555555;}
</style>
<path class="st0" d="M78.6,5c-9.5-7.4-23-6.5-31.6,2L7,47c-8.5,8.5-9.4,22-2.1,31.6l80,104c4.5,5.9,11.6,9.4,19,9.4H158l109,109
	c-14.7,29-10,65.4,14.3,89.6l112,112c12.5,12.5,32.8,12.5,45.3,0l64-64c12.5-12.5,12.5-32.8,0-45.3l-112-112
	c-24.2-24.2-60.6-29-89.6-14.3L192,158v-54.1c0-7.5-3.5-14.5-9.4-19L78.6,5z M23.2,376.8C8.3,391.7,0,411.8,0,432.8
	C0,476.5,35.5,512,79.2,512c21,0,41.1-8.3,56-23.2l103.3-103.3c-8.9-17.6-12.8-37.1-11.6-56.3L101.3,454.9
	c-5.9,5.8-13.8,9.1-22.1,9.1C62,464,48,450,48,432.8c0-8.3,3.3-16.2,9.1-22.1l137.2-137.2l-33.9-33.9L23.2,376.8z M463.9,164
	c-1.4,38.9-22.6,72.8-53.8,91.8c1.1,1,2.1,2,3.1,3l31.6,31.6c40.7-29,67.2-76.6,67.2-130.3c0-24.8-5.7-48.3-15.7-69.3
	c-4.4-9.2-16.5-10.5-23.7-3.3l-67.9,67.9c-3,3-7.1,4.7-11.3,4.7L368,160c-8.8,0-16-7.2-16-16v-25.4c0-4.2,1.7-8.3,4.7-11.3
	l67.9-67.9c7.2-7.2,5.9-19.3-3.3-23.7C400.3,5.7,376.8,0,352,0c-57.3,0-107.6,30.1-135.8,75.4c5,8.6,7.8,18.4,7.8,28.6v40.8l16,16
	V160c0-60.5,48-109.9,108-111.9l-25.3,25.3l0,0c-12,12-18.7,28.3-18.7,45.3v25.4c0,35.3,28.7,64,64,64h25.4c17,0,33.3-6.7,45.3-18.7
	L463.9,164z"/>
</svg>
