<?xml version="1.0" encoding="utf-8"?>
<!-- Generator: Adobe Illustrator 27.8.0, SVG Export Plug-In . SVG Version: 6.00 Build 0)  -->
<svg version="1.1" id="Layer_1" xmlns="http://www.w3.org/2000/svg" xmlns:xlink="http://www.w3.org/1999/xlink" x="0px" y="0px"
	 viewBox="0 0 512 512" style="enable-background:new 0 0 512 512;" xml:space="preserve">
<style type="text/css">
	.st0{fill:#555555;}
</style>
<path class="st0" d="M73,127l183-77.6L439,127c5.9,2.5,9.1,7.8,9,12.8c-0.4,91.4-38.4,249.3-186.3,320.1c-3.6,1.7-7.8,1.7-11.3,0
	C102.4,389,64.5,231.2,64,139.7c0-5,3.1-10.2,9-12.8V127z M457.7,82.8L269.4,2.9C265.2,1,260.7,0,256,0s-9.2,1-13.4,2.9L54.3,82.8
	c-22,9.3-38.4,31-38.3,57.2c0.5,99.2,41.3,280.7,213.6,363.2c16.7,8,36.1,8,52.8,0C454.8,420.7,495.5,239.2,496,140
	C496.1,113.8,479.7,92.1,457.7,82.8z M369,209c9.4-9.4,9.4-24.6,0-33.9s-24.6-9.4-33.9,0l-111,111l-47-47c-9.4-9.4-24.6-9.4-33.9,0
	s-9.4,24.6,0,33.9l64,64c9.4,9.4,24.6,9.4,33.9,0L369,209z"/>
</svg>
